<svg xmlns="http://www.w3.org/2000/svg" width="21" height="21" viewBox="0 0 21 21">
  <g id="Icon" transform="translate(-168.031 -573)">
    <path id="Vector" d="M20.873,6.227,18.638,4.875V.284a.262.262,0,0,0-.263-.263H15.061A.262.262,0,0,0,14.8.284v2.27L10.637.038a.24.24,0,0,0-.085-.031.263.263,0,0,0-.2.031L.127,6.227A.262.262,0,0,0,0,6.451V8.617a.262.262,0,0,0,.395.227l1.54-.9V18.522H1.2a.262.262,0,0,0-.262.263v1.953A.262.262,0,0,0,1.2,21H19.8a.263.263,0,0,0,.263-.263V18.784a.262.262,0,0,0-.263-.263h-.733V7.944l1.541.9A.262.262,0,0,0,21,8.617V6.451a.262.262,0,0,0-.127-.225ZM15.323.546h2.789V4.558L15.323,2.871Zm4.212,19.929H1.465V19.047h18.07Zm-6.672-1.953H8.137v-8.2h4.725Zm5.677,0H13.388V10.061a.262.262,0,0,0-.263-.263H7.875a.262.262,0,0,0-.262.263v8.461H2.46V7.636l8.036-4.7,8.043,4.7ZM20.475,8.16,10.628,2.407a.263.263,0,0,0-.265,0L.525,8.159V6.6L10.5.566,20.475,6.6Z" transform="translate(168.031 573)" fill="#31353b"/>
  </g>
</svg>
